<?xml version="1.0" standalone="no"?>
<svg xmlns:xlink="http://www.w3.org/1999/xlink" id="wave" style="transform:rotate(180deg); transition: 0.3s" viewBox="0 0 1440 100" version="1.1" xmlns="http://www.w3.org/2000/svg"><defs><linearGradient id="sw-gradient-0" x1="0" x2="0" y1="1" y2="0"><stop stop-color="rgba(60, 60, 60, 1)" offset="0%"/><stop stop-color="rgba(60, 60, 60, 1)" offset="100%"/></linearGradient></defs><path style="transform:translate(0, 0px); opacity:1" fill="url(#sw-gradient-0)" d="M0,60L10,56.7C20,53,40,47,60,36.7C80,27,100,13,120,20C140,27,160,53,180,65C200,77,220,73,240,68.3C260,63,280,57,300,46.7C320,37,340,23,360,26.7C380,30,400,50,420,51.7C440,53,460,37,480,36.7C500,37,520,53,540,61.7C560,70,580,70,600,70C620,70,640,70,660,61.7C680,53,700,37,720,35C740,33,760,47,780,50C800,53,820,47,840,46.7C860,47,880,53,900,58.3C920,63,940,67,960,60C980,53,1000,37,1020,26.7C1040,17,1060,13,1080,18.3C1100,23,1120,37,1140,36.7C1160,37,1180,23,1200,26.7C1220,30,1240,50,1260,50C1280,50,1300,30,1320,18.3C1340,7,1360,3,1380,11.7C1400,20,1420,40,1430,50L1440,60L1440,100L1430,100C1420,100,1400,100,1380,100C1360,100,1340,100,1320,100C1300,100,1280,100,1260,100C1240,100,1220,100,1200,100C1180,100,1160,100,1140,100C1120,100,1100,100,1080,100C1060,100,1040,100,1020,100C1000,100,980,100,960,100C940,100,920,100,900,100C880,100,860,100,840,100C820,100,800,100,780,100C760,100,740,100,720,100C700,100,680,100,660,100C640,100,620,100,600,100C580,100,560,100,540,100C520,100,500,100,480,100C460,100,440,100,420,100C400,100,380,100,360,100C340,100,320,100,300,100C280,100,260,100,240,100C220,100,200,100,180,100C160,100,140,100,120,100C100,100,80,100,60,100C40,100,20,100,10,100L0,100Z"/></svg>